<svg xmlns:svg="http://www.w3.org/2000/svg" xmlns="http://www.w3.org/2000/svg" xmlns:xlink="http://www.w3.org/1999/xlink" width="128" height="128" viewBox="0 0 128 128" id="svg2" version="1.1"><style>.s0{stop-color:#000000;stop-opacity:1;}</style><defs id="defs4"><linearGradient id="linearGradient5968"><stop offset="0" id="stop5970" style="stop-color:#ffffff;stop-opacity:1"/></linearGradient><linearGradient id="linearGradient4492"><stop offset="0" id="stop4494" class="s0"/></linearGradient><linearGradient id="linearGradient4486"><stop offset="0" id="stop4488" class="s0"/></linearGradient><linearGradient id="linearGradient4480"><stop offset="0" id="stop4482" class="s0"/></linearGradient><linearGradient id="linearGradient4474"><stop offset="0" id="stop4476" class="s0"/></linearGradient><linearGradient id="linearGradient4468"><stop offset="0" id="stop4470" class="s0"/></linearGradient><linearGradient id="linearGradient4462"><stop offset="0" id="stop4464" class="s0"/></linearGradient><linearGradient id="linearGradient4456"><stop offset="0" id="stop4458" class="s0"/></linearGradient><linearGradient id="linearGradient4450"><stop offset="0" id="stop4452" class="s0"/></linearGradient><linearGradient id="linearGradient4444"><stop offset="0" id="stop4446" class="s0"/></linearGradient><linearGradient id="linearGradient4438"><stop offset="0" id="stop4440" class="s0"/></linearGradient><linearGradient id="linearGradient4432"><stop offset="0" id="stop4434" class="s0"/></linearGradient><linearGradient id="linearGradient4426"><stop offset="0" id="stop4428" class="s0"/></linearGradient><linearGradient id="linearGradient4420"><stop offset="0" id="stop4422" class="s0"/></linearGradient><linearGradient id="linearGradient4414"><stop offset="0" id="stop4416" class="s0"/></linearGradient><linearGradient id="linearGradient4408"><stop offset="0" id="stop4410" class="s0"/></linearGradient><linearGradient id="linearGradient4402"><stop offset="0" id="stop4404" class="s0"/></linearGradient><linearGradient id="linearGradient4396"><stop offset="0" id="stop4398" class="s0"/></linearGradient><linearGradient id="linearGradient4300"><stop offset="0" id="stop4302" class="s0"/></linearGradient><linearGradient xlink:href="#linearGradient5968" id="linearGradient5972" x1="10.3" y1="1007" x2="15.3" y2="1007" gradientUnits="userSpaceOnUse"/><linearGradient xlink:href="#linearGradient5968" id="linearGradient5974" x1="9.2" y1="1004.4" x2="20.8" y2="1004.4" gradientUnits="userSpaceOnUse"/><linearGradient xlink:href="#linearGradient5968" id="linearGradient5976" x1="14.8" y1="1002" x2="19.8" y2="1002" gradientUnits="userSpaceOnUse"/><linearGradient xlink:href="#linearGradient5968" id="linearGradient5978" x1="42.5" y1="1003.9" x2="53.5" y2="1003.9" gradientUnits="userSpaceOnUse"/><linearGradient xlink:href="#linearGradient5968" id="linearGradient5980" x1="74.4" y1="972.4" x2="86.1" y2="972.4" gradientUnits="userSpaceOnUse"/><linearGradient xlink:href="#linearGradient5968" id="linearGradient5982" x1="74.1" y1="972.3" x2="85.6" y2="972.3" gradientUnits="userSpaceOnUse"/><linearGradient xlink:href="#linearGradient5968" id="linearGradient5984" x1="46" y1="971.9" x2="47" y2="971.9" gradientUnits="userSpaceOnUse"/><linearGradient xlink:href="#linearGradient5968" id="linearGradient5986" x1="40.5" y1="971.9" x2="52.5" y2="971.9" gradientUnits="userSpaceOnUse"/><linearGradient xlink:href="#linearGradient5968" id="linearGradient5988" x1="9.5" y1="977.9" x2="20.5" y2="977.9" gradientUnits="userSpaceOnUse"/><linearGradient xlink:href="#linearGradient5968" id="linearGradient5990" x1="9.5" y1="971.9" x2="20.5" y2="971.9" gradientUnits="userSpaceOnUse"/><linearGradient xlink:href="#linearGradient5968" id="linearGradient5992" x1="9.5" y1="965.9" x2="20.5" y2="965.9" gradientUnits="userSpaceOnUse"/><linearGradient xlink:href="#linearGradient5968" id="linearGradient5994" x1="112.2" y1="969" x2="117" y2="969" gradientUnits="userSpaceOnUse"/><linearGradient xlink:href="#linearGradient5968" id="linearGradient5996" x1="105.5" y1="972.3" x2="116.7" y2="972.3" gradientUnits="userSpaceOnUse"/><linearGradient xlink:href="#linearGradient5968" id="linearGradient5998" x1="105" y1="975.7" x2="109.8" y2="975.7" gradientUnits="userSpaceOnUse"/><linearGradient xlink:href="#linearGradient5968" id="linearGradient6000" x1="107" y1="939.4" x2="115.2" y2="939.4" gradientUnits="userSpaceOnUse"/><linearGradient xlink:href="#linearGradient5968" id="linearGradient6002" x1="82.2" y1="940.4" x2="83.2" y2="940.4" gradientUnits="userSpaceOnUse"/><linearGradient xlink:href="#linearGradient5968" id="linearGradient6004" x1="75.2" y1="940.3" x2="76.2" y2="940.3" gradientUnits="userSpaceOnUse"/><linearGradient xlink:href="#linearGradient5968" id="linearGradient6006" x1="41.8" y1="940.3" x2="49.8" y2="940.3" gradientUnits="userSpaceOnUse"/><linearGradient xlink:href="#linearGradient5968" id="linearGradient6008" x1="12.2" y1="940.4" x2="21.1" y2="940.4" gradientUnits="userSpaceOnUse"/></defs><metadata id="metadata7"/><g id="layer2"><rect id="rect6010" width="127.9" height="127.8" x="0" y="-1052.3" transform="matrix(1,0,0,-1,0,-924.36216)" fill="#000"/></g><g id="layer1" transform="translate(0,-924.36216)"><path d="m13.4 932.9 7 7.5-7 7.5 0 0" id="path3377" style="fill:none;stroke:url(#linearGradient6008)"/><path d="m49.5 947.9-7-7.5 7-7.5 0 0" id="path3377-0" style="fill:none;stroke:url(#linearGradient6006)"/><path d="m75.7 934.8 0 11" id="path4198" style="fill:none;stroke:url(#linearGradient6004)"/><path d="m82.7 934.9 0 11" id="path4198-9" style="fill:none;stroke:url(#linearGradient6002)"/><path d="m107.6 931.9 6.9 7.5-7 7.5z" id="path4217" style="fill:none;stroke:url(#linearGradient6000)"/><path d="m20.5 965.9-11 0" id="path4198-7" style="fill:none;stroke:url(#linearGradient5992)"/><path d="m20.5 971.9-10.9 0" id="path4198-9-4" style="fill:none;stroke:url(#linearGradient5990)"/><path d="m20.5 977.9-11 0" id="path4198-9-4-7" style="fill:none;stroke:url(#linearGradient5988)"/><path d="m52.5 971.9-11.9 0" id="path4198-7-0" style="fill:none;stroke:url(#linearGradient5986)"/><path d="m46.5 977.8 0-11.9" id="path4198-7-0-9" style="fill:none;stroke:url(#linearGradient5984)"/><path d="M85.3 977.8 74.5 966.9" id="path4198-7-0-8" style="fill:none;stroke:url(#linearGradient5982)"/><path d="M74.7 977.9 85.7 966.9" id="path4198-7-0-9-1" style="fill:none;stroke:url(#linearGradient5980)"/><path d="m109.8 977.8-4.3 0.1 0.1-4.3 0 0" id="path3377-0-8" style="fill:none;stroke:url(#linearGradient5998)"/><path d="m116.3 967-10.4 10.4" id="path4198-7-2" style="fill:none;stroke:url(#linearGradient5996)"/><path d="m112.2 966.9 4.3-0.1-0.1 4.3 0 0" id="path3377-0-8-5" style="fill:none;stroke:url(#linearGradient5994)"/><path d="m19.8 1004.2-4.5 0.1 0.1-4.5 0 0" id="path3377-0-8-3" style="fill:none;stroke:url(#linearGradient5976)"/><path d="M20.5 998.9 9.5 1009.9" id="path4198-7-2-0" style="fill:none;stroke:url(#linearGradient5974)"/><path d="m10.3 1004.8 4.5-0.1-0.1 4.5 0 0" id="path3377-0-8-5-2" style="fill:none;stroke:url(#linearGradient5972)"/><path d="m53.5 1003.9-11 0" id="path4198-7-0-7" style="fill:none;stroke:url(#linearGradient5978)"/></g></svg>