<svg xmlns:svg="http://www.w3.org/2000/svg" xmlns="http://www.w3.org/2000/svg" xmlns:xlink="http://www.w3.org/1999/xlink" width="128" height="128" viewBox="0 0 128 128" id="svg2" version="1.1"><style>.s0{fill:none;stroke-linecap:round;stroke-linejoin:round;stroke-miterlimit:4;stroke:#000;}.s1{fill:none;stroke-linecap:round;stroke-linejoin:round;stroke-miterlimit:4;stroke-width:1;stroke:#000;}</style><defs id="defs4"><linearGradient id="linearGradient4300"><stop offset="0" id="stop4302" style="stop-color:#000000;stop-opacity:1"/></linearGradient><linearGradient xlink:href="#linearGradient4300" id="linearGradient4304" x1="46.435" y1="972.409" x2="47.304" y2="972.409" gradientUnits="userSpaceOnUse" gradientTransform="matrix(0.89391778,0,0,0.82626,4.6027158,168.42402)"/><linearGradient xlink:href="#linearGradient4300" id="linearGradient4306" x1="39.999" y1="972.518" x2="53.359" y2="972.518" gradientUnits="userSpaceOnUse" gradientTransform="matrix(0.95439812,0,0,0.77680663,1.9463026,216.39669)"/><linearGradient gradientTransform="matrix(0.88112218,0,0,1,6.8413753,31.370178)" xlink:href="#linearGradient4300" id="linearGradient4306-1" x1="39.999" y1="972.518" x2="53.359" y2="972.518" gradientUnits="userSpaceOnUse"/></defs><metadata id="metadata7"/><g id="layer1" transform="translate(0,-924.36216)"><path d="m13.415 932.86 6.983 7.488-7.015 7.521 0 0M49.469 947.864l-6.977-7.488 7.008-7.522 0 0M49.469 947.864l-6.977-7.488 7.008-7.522 0 0M49.469 947.864l-6.977-7.488 7.008-7.522 0 0M49.469 947.864l-6.977-7.488 7.008-7.522 0 0M49.469 947.864l-6.977-7.488 7.008-7.522 0 0" id="path3377" class="s0"/><path d="m49.469 947.864-6.977-7.488 7.008-7.522 0 0" id="path3377-0" class="s0"/><path d="m75.669 934.847 0 10.989" id="path4198" class="s0"/><path d="m82.713 934.889 0 10.989" id="path4198-9" class="s0"/><path d="m107.559 931.863 6.94 7.468-6.998 7.53zM20.494 965.854l-10.985 0M20.494 965.854l-10.985 0M20.494 965.854l-10.985 0M20.494 965.854l-10.985 0M20.494 965.854l-10.985 0" id="path4217" class="s1"/><path d="m20.494 965.854-10.985 0" id="path4198-7" class="s1"/><path d="m20.452 971.861-10.943 0" id="path4198-9-4" class="s1"/><path d="m20.494 977.86-10.985 0" id="path4198-9-4-7" class="s1"/><path d="m52.451 971.855-11.91 0" id="path4198-7-0" style="fill:none;stroke-linecap:round;stroke-linejoin:round;stroke-miterlimit:4;stroke-width:1;stroke:url(#linearGradient4306)"/><path d="m46.5 977.819 0-11.865" id="path4198-7-0-9" style="fill:none;stroke-linecap:round;stroke-linejoin:round;stroke-miterlimit:4;stroke-width:1;stroke:url(#linearGradient4304)"/><path d="M85.26 977.785 74.493 966.856" id="path4198-7-0-8" class="s0"/><path d="M74.746 977.863 85.724 966.885" id="path4198-7-0-9-1" class="s1"/><path d="m109.775 977.802-4.296 0.081 0.082-4.305 0 0M116.323 967.047l-10.436 10.411M116.323 967.047l-10.436 10.411M116.323 967.047l-10.436 10.411M116.323 967.047l-10.436 10.411M116.323 967.047l-10.436 10.411" id="path3377-0-8" class="s0"/><path d="m116.323 967.047-10.436 10.411" id="path4198-7-2" class="s0"/><path d="m112.225 966.922 4.296-0.081-0.082 4.305 0 0" id="path3377-0-8-5" class="s0"/><path d="m19.756 1004.202-4.484 0.085 0.085-4.504 0 0" id="path3377-0-8-3" class="s0"/><path d="M20.491 998.871 9.509 1009.853" id="path4198-7-2-0" class="s0"/><path d="m10.32 1004.813 4.484-0.085-0.085 4.504 0 0" id="path3377-0-8-5-2" class="s0"/><path d="m53.469 1003.888-10.995 0" id="path4198-7-0-7" style="fill:none;stroke-linecap:round;stroke-linejoin:round;stroke-miterlimit:4;stroke:url(#linearGradient4306-1)"/></g></svg>